<svg width="24" height="24" viewBox="0 0 24 24" fill="none" xmlns="http://www.w3.org/2000/svg">
<g id="Icon / line / 3d-cube-scan">
<path id="Vector" d="M7.21486 9.49988C7.07642 9.71687 7 9.96626 7 10.2255V13.7743C7 14.2927 7.30567 14.7718 7.80188 15.0311L11.1981 16.8054C11.4462 16.9351 11.7231 16.9999 12 16.9999M7.21486 9.49988C7.35331 9.28289 7.55377 9.0983 7.80188 8.96868L11.1981 7.19431C11.6943 6.93507 12.3057 6.93507 12.8019 7.19431L16.1981 8.96868C16.4462 9.0983 16.6467 9.28289 16.7851 9.49988M7.21486 9.49988L12 11.9999M12 11.9999V16.9999M12 11.9999L16.7851 9.49988M12 16.9999C12.2769 16.9999 12.5538 16.9351 12.8019 16.8054L16.1981 15.0311C16.6943 14.7718 17 14.2927 17 13.7743V10.2255C17 9.96626 16.9236 9.71687 16.7851 9.49988" stroke="white" stroke-width="1.5"/>
<path id="Vector_2" d="M8.50012 3.09882C8.33472 3.1078 8.16809 3.11739 8.00007 3.12759C7.2096 3.17558 6.38829 3.23702 5.51913 3.31191C4.34527 3.41306 3.40789 4.33761 3.2993 5.51113C3.21868 6.38233 3.1555 7.20632 3.1084 7.99988M16.0001 3.12478C16.7915 3.17262 17.6128 3.23414 18.4815 3.30935C19.6611 3.41148 20.5997 4.34533 20.7041 5.52506C20.7807 6.39056 20.842 7.20981 20.8888 7.99988M3.15016 15.9999C3.19906 16.7806 3.25901 17.5895 3.32869 18.4431C3.42633 19.639 4.37129 20.5942 5.56654 20.6961C6.4171 20.7686 7.22279 20.8282 8.00007 20.8747M16.0001 20.8734C16.7821 20.8267 17.5943 20.7669 18.4531 20.6941C19.6455 20.593 20.5905 19.643 20.6892 18.4501C20.7601 17.5928 20.8196 16.7815 20.8671 15.9999" stroke="white" stroke-width="1.5" stroke-linecap="round"/>
</g>
</svg>
