<svg width="566" height="608" viewBox="0 0 566 608" fill="none" xmlns="http://www.w3.org/2000/svg">
<g opacity="0.4" filter="url(#filter0_b_2001_1170)">
<rect x="252.824" y="30.9598" width="213.776" height="213.776" rx="106.888" transform="rotate(-18.0213 252.824 30.9598)" fill="url(#paint0_linear_2001_1170)"/>
<rect x="253.786" y="31.4492" width="212.25" height="212.25" rx="106.125" transform="rotate(-18.0213 253.786 31.4492)" stroke="url(#paint1_linear_2001_1170)" stroke-width="1.52592"/>
</g>
<g opacity="0.2" filter="url(#filter1_b_2001_1170)">
<rect x="211" y="10.0291" width="281.31" height="281.31" rx="140.655" transform="rotate(-18.0213 211 10.0291)" fill="url(#paint2_linear_2001_1170)"/>
<rect x="211.962" y="10.5186" width="279.784" height="279.784" rx="139.892" transform="rotate(-18.0213 211.962 10.5186)" stroke="url(#paint3_linear_2001_1170)" stroke-width="1.52592"/>
</g>
<g filter="url(#filter2_b_2001_1170)">
<rect x="292.523" y="51.169" width="150.776" height="150.776" rx="75.3882" transform="rotate(-18.0213 292.523 51.169)" fill="url(#paint4_linear_2001_1170)"/>
<rect x="293.485" y="51.6585" width="149.25" height="149.25" rx="74.6252" transform="rotate(-18.0213 293.485 51.6585)" stroke="url(#paint5_linear_2001_1170)" stroke-width="1.52592"/>
</g>
<path d="M340.606 95.2C341.511 95.2 342.263 95.5033 342.86 96.11C343.467 96.7073 343.77 97.454 343.77 98.35C343.77 99.2367 343.467 99.9833 342.86 100.59C342.263 101.197 341.511 101.5 340.606 101.5H338.352V105H337.05V95.2H340.606ZM340.606 100.282C341.147 100.282 341.595 100.1 341.95 99.736C342.305 99.3627 342.482 98.9007 342.482 98.35C342.482 97.79 342.305 97.328 341.95 96.964C341.595 96.6 341.147 96.418 340.606 96.418H338.352V100.282H340.606ZM346.249 99.176C346.651 98.308 347.379 97.874 348.433 97.874V99.148C347.836 99.12 347.323 99.2787 346.893 99.624C346.464 99.9693 346.249 100.525 346.249 101.29V105H345.031V98H346.249V99.176ZM350.241 96.726C350.008 96.726 349.812 96.6467 349.653 96.488C349.495 96.3293 349.415 96.138 349.415 95.914C349.415 95.69 349.495 95.4987 349.653 95.34C349.812 95.172 350.008 95.088 350.241 95.088C350.465 95.088 350.657 95.172 350.815 95.34C350.974 95.4987 351.053 95.69 351.053 95.914C351.053 96.138 350.974 96.3293 350.815 96.488C350.657 96.6467 350.465 96.726 350.241 96.726ZM349.625 105V98H350.843V105H349.625ZM357.601 98H358.917L356.117 105H354.689L351.889 98H353.205L355.403 103.698L357.601 98ZM365.47 98H366.688V105H365.47V103.796C364.863 104.72 363.981 105.182 362.824 105.182C361.844 105.182 361.009 104.827 360.318 104.118C359.627 103.399 359.282 102.527 359.282 101.5C359.282 100.473 359.627 99.6053 360.318 98.896C361.009 98.1773 361.844 97.818 362.824 97.818C363.981 97.818 364.863 98.28 365.47 99.204V98ZM362.978 104.006C363.687 104.006 364.28 103.768 364.756 103.292C365.232 102.807 365.47 102.209 365.47 101.5C365.47 100.791 365.232 100.198 364.756 99.722C364.28 99.2367 363.687 98.994 362.978 98.994C362.278 98.994 361.69 99.2367 361.214 99.722C360.738 100.198 360.5 100.791 360.5 101.5C360.5 102.209 360.738 102.807 361.214 103.292C361.69 103.768 362.278 104.006 362.978 104.006ZM371.823 105.182C370.769 105.182 369.891 104.832 369.191 104.132C368.491 103.423 368.141 102.545 368.141 101.5C368.141 100.455 368.491 99.582 369.191 98.882C369.891 98.1727 370.769 97.818 371.823 97.818C372.514 97.818 373.135 97.986 373.685 98.322C374.236 98.6487 374.647 99.092 374.917 99.652L373.895 100.24C373.718 99.8667 373.443 99.568 373.069 99.344C372.705 99.12 372.29 99.008 371.823 99.008C371.123 99.008 370.535 99.246 370.059 99.722C369.593 100.198 369.359 100.791 369.359 101.5C369.359 102.2 369.593 102.788 370.059 103.264C370.535 103.74 371.123 103.978 371.823 103.978C372.29 103.978 372.71 103.871 373.083 103.656C373.457 103.432 373.741 103.133 373.937 102.76L374.973 103.362C374.675 103.913 374.245 104.356 373.685 104.692C373.125 105.019 372.505 105.182 371.823 105.182ZM381.076 98H382.378L379.522 105.434C379.223 106.227 378.803 106.829 378.262 107.24C377.73 107.66 377.114 107.847 376.414 107.8V106.666C377.272 106.731 377.902 106.255 378.304 105.238L378.43 104.972L375.378 98H376.68L379.06 103.488L381.076 98ZM394.917 104.594L393.825 105.224L392.831 104.16C392.103 104.841 391.169 105.182 390.031 105.182C389.051 105.182 388.257 104.93 387.651 104.426C387.044 103.913 386.741 103.222 386.741 102.354C386.741 101.757 386.89 101.211 387.189 100.716C387.497 100.212 387.945 99.8153 388.533 99.526C388.113 98.994 387.903 98.4013 387.903 97.748C387.903 96.936 388.183 96.278 388.743 95.774C389.312 95.27 389.993 95.018 390.787 95.018C391.44 95.018 392.033 95.1953 392.565 95.55C393.097 95.9047 393.479 96.3947 393.713 97.02L392.621 97.65C392.481 97.2207 392.247 96.8847 391.921 96.642C391.603 96.3993 391.235 96.278 390.815 96.278C390.367 96.278 389.984 96.4133 389.667 96.684C389.359 96.9547 389.205 97.3047 389.205 97.734C389.205 98.042 389.275 98.322 389.415 98.574C389.564 98.8167 389.783 99.092 390.073 99.4L392.747 102.256C392.98 101.771 393.148 101.178 393.251 100.478L394.371 101.122C394.24 101.897 393.988 102.592 393.615 103.208L394.917 104.594ZM390.059 103.95C390.833 103.95 391.477 103.721 391.991 103.264L389.345 100.422C388.897 100.609 388.565 100.87 388.351 101.206C388.145 101.542 388.043 101.897 388.043 102.27C388.043 102.793 388.22 103.203 388.575 103.502C388.929 103.801 389.424 103.95 390.059 103.95ZM403.346 95.2C404.252 95.2 405.003 95.5033 405.6 96.11C406.207 96.7073 406.51 97.454 406.51 98.35C406.51 99.2367 406.207 99.9833 405.6 100.59C405.003 101.197 404.252 101.5 403.346 101.5H401.092V105H399.79V95.2H403.346ZM403.346 100.282C403.888 100.282 404.336 100.1 404.69 99.736C405.045 99.3627 405.222 98.9007 405.222 98.35C405.222 97.79 405.045 97.328 404.69 96.964C404.336 96.6 403.888 96.418 403.346 96.418H401.092V100.282H403.346ZM413.297 104.118C412.578 104.827 411.706 105.182 410.679 105.182C409.652 105.182 408.78 104.827 408.061 104.118C407.352 103.409 406.997 102.536 406.997 101.5C406.997 100.464 407.352 99.5913 408.061 98.882C408.78 98.1727 409.652 97.818 410.679 97.818C411.706 97.818 412.578 98.1727 413.297 98.882C414.016 99.5913 414.375 100.464 414.375 101.5C414.375 102.536 414.016 103.409 413.297 104.118ZM410.679 103.992C411.379 103.992 411.967 103.754 412.443 103.278C412.919 102.802 413.157 102.209 413.157 101.5C413.157 100.791 412.919 100.198 412.443 99.722C411.967 99.246 411.379 99.008 410.679 99.008C409.988 99.008 409.405 99.246 408.929 99.722C408.453 100.198 408.215 100.791 408.215 101.5C408.215 102.209 408.453 102.802 408.929 103.278C409.405 103.754 409.988 103.992 410.679 103.992ZM415.811 105V94.78H417.029V105H415.811ZM419.503 96.726C419.27 96.726 419.074 96.6467 418.915 96.488C418.756 96.3293 418.677 96.138 418.677 95.914C418.677 95.69 418.756 95.4987 418.915 95.34C419.074 95.172 419.27 95.088 419.503 95.088C419.727 95.088 419.918 95.172 420.077 95.34C420.236 95.4987 420.315 95.69 420.315 95.914C420.315 96.138 420.236 96.3293 420.077 96.488C419.918 96.6467 419.727 96.726 419.503 96.726ZM418.887 105V98H420.105V105H418.887ZM425.253 105.182C424.198 105.182 423.321 104.832 422.621 104.132C421.921 103.423 421.571 102.545 421.571 101.5C421.571 100.455 421.921 99.582 422.621 98.882C423.321 98.1727 424.198 97.818 425.253 97.818C425.944 97.818 426.564 97.986 427.115 98.322C427.666 98.6487 428.076 99.092 428.347 99.652L427.325 100.24C427.148 99.8667 426.872 99.568 426.499 99.344C426.135 99.12 425.72 99.008 425.253 99.008C424.553 99.008 423.965 99.246 423.489 99.722C423.022 100.198 422.789 100.791 422.789 101.5C422.789 102.2 423.022 102.788 423.489 103.264C423.965 103.74 424.553 103.978 425.253 103.978C425.72 103.978 426.14 103.871 426.513 103.656C426.886 103.432 427.171 103.133 427.367 102.76L428.403 103.362C428.104 103.913 427.675 104.356 427.115 104.692C426.555 105.019 425.934 105.182 425.253 105.182ZM434.505 98H435.807L432.951 105.434C432.653 106.227 432.233 106.829 431.691 107.24C431.159 107.66 430.543 107.847 429.843 107.8V106.666C430.702 106.731 431.332 106.255 431.733 105.238L431.859 104.972L428.807 98H430.109L432.489 103.488L434.505 98Z" fill="#8A92BC"/>
<g opacity="0.4" filter="url(#filter3_b_2001_1170)">
<rect x="44.1777" y="427.034" width="225.804" height="225.804" rx="112.902" transform="rotate(-18.0213 44.1777 427.034)" fill="url(#paint6_linear_2001_1170)"/>
<rect x="45.1393" y="427.524" width="224.278" height="224.278" rx="112.139" transform="rotate(-18.0213 45.1393 427.524)" stroke="url(#paint7_linear_2001_1170)" stroke-width="1.52592"/>
</g>
<g opacity="0.2" filter="url(#filter4_b_2001_1170)">
<rect y="404.926" width="297.138" height="297.138" rx="148.569" transform="rotate(-18.0213 0 404.926)" fill="url(#paint8_linear_2001_1170)"/>
<rect x="0.961568" y="405.415" width="295.612" height="295.612" rx="147.806" transform="rotate(-18.0213 0.961568 405.415)" stroke="url(#paint9_linear_2001_1170)" stroke-width="1.52592"/>
</g>
<g filter="url(#filter5_b_2001_1170)">
<rect x="86.1104" y="448.38" width="159.26" height="159.26" rx="79.6299" transform="rotate(-18.0213 86.1104 448.38)" fill="url(#paint10_linear_2001_1170)"/>
<rect x="87.0719" y="448.87" width="157.734" height="157.734" rx="78.867" transform="rotate(-18.0213 87.0719 448.87)" stroke="url(#paint11_linear_2001_1170)" stroke-width="1.52592"/>
</g>
<path d="M147.872 504.396L145.058 494.596H146.43L148.67 502.66L151.05 494.596H152.366L154.746 502.66L156.986 494.596H158.358L155.544 504.396H154.032L151.708 496.57L149.384 504.396H147.872ZM162.845 497.214C163.666 497.214 164.324 497.476 164.819 497.998C165.313 498.512 165.561 499.212 165.561 500.098V504.396H164.343V500.168C164.343 499.599 164.189 499.16 163.881 498.852C163.573 498.535 163.148 498.376 162.607 498.376C162 498.376 161.51 498.568 161.137 498.95C160.763 499.324 160.577 499.902 160.577 500.686V504.396H159.359V494.596H160.577V498.404C161.071 497.611 161.827 497.214 162.845 497.214ZM167.877 496.122C167.644 496.122 167.448 496.043 167.289 495.884C167.13 495.726 167.051 495.534 167.051 495.31C167.051 495.086 167.13 494.895 167.289 494.736C167.448 494.568 167.644 494.484 167.877 494.484C168.101 494.484 168.292 494.568 168.451 494.736C168.61 494.895 168.689 495.086 168.689 495.31C168.689 495.534 168.61 495.726 168.451 495.884C168.292 496.043 168.101 496.122 167.877 496.122ZM167.261 504.396V497.396H168.479V504.396H167.261ZM174.145 498.572H172.283V502.366C172.283 502.712 172.348 502.959 172.479 503.108C172.619 503.248 172.829 503.323 173.109 503.332C173.389 503.332 173.734 503.323 174.145 503.304V504.396C173.081 504.536 172.302 504.452 171.807 504.144C171.312 503.827 171.065 503.234 171.065 502.366V498.572H169.679V497.396H171.065V495.8L172.283 495.436V497.396H174.145V498.572ZM176.086 501.456C176.207 502.082 176.492 502.567 176.94 502.912C177.397 503.258 177.957 503.43 178.62 503.43C179.544 503.43 180.216 503.09 180.636 502.408L181.672 502.996C180.99 504.051 179.964 504.578 178.592 504.578C177.481 504.578 176.576 504.233 175.876 503.542C175.185 502.842 174.84 501.96 174.84 500.896C174.84 499.842 175.18 498.964 175.862 498.264C176.543 497.564 177.425 497.214 178.508 497.214C179.534 497.214 180.37 497.578 181.014 498.306C181.667 499.025 181.994 499.893 181.994 500.91C181.994 501.088 181.98 501.27 181.952 501.456H176.086ZM178.508 498.362C177.854 498.362 177.313 498.549 176.884 498.922C176.454 499.286 176.188 499.776 176.086 500.392H180.762C180.659 499.73 180.398 499.226 179.978 498.88C179.558 498.535 179.068 498.362 178.508 498.362ZM190.576 494.596C191.481 494.596 192.232 494.9 192.83 495.506C193.436 496.104 193.74 496.85 193.74 497.746C193.74 498.633 193.436 499.38 192.83 499.986C192.232 500.593 191.481 500.896 190.576 500.896H188.322V504.396H187.02V494.596H190.576ZM190.576 499.678C191.117 499.678 191.565 499.496 191.92 499.132C192.274 498.759 192.452 498.297 192.452 497.746C192.452 497.186 192.274 496.724 191.92 496.36C191.565 495.996 191.117 495.814 190.576 495.814H188.322V499.678H190.576ZM200.414 497.396H201.632V504.396H200.414V503.192C199.808 504.116 198.926 504.578 197.768 504.578C196.788 504.578 195.953 504.224 195.262 503.514C194.572 502.796 194.226 501.923 194.226 500.896C194.226 499.87 194.572 499.002 195.262 498.292C195.953 497.574 196.788 497.214 197.768 497.214C198.926 497.214 199.808 497.676 200.414 498.6V497.396ZM197.922 503.402C198.632 503.402 199.224 503.164 199.7 502.688C200.176 502.203 200.414 501.606 200.414 500.896C200.414 500.187 200.176 499.594 199.7 499.118C199.224 498.633 198.632 498.39 197.922 498.39C197.222 498.39 196.634 498.633 196.158 499.118C195.682 499.594 195.444 500.187 195.444 500.896C195.444 501.606 195.682 502.203 196.158 502.688C196.634 503.164 197.222 503.402 197.922 503.402ZM207.342 497.214C208.322 497.214 209.157 497.574 209.848 498.292C210.538 499.002 210.884 499.87 210.884 500.896C210.884 501.923 210.538 502.796 209.848 503.514C209.157 504.224 208.322 504.578 207.342 504.578C206.184 504.578 205.302 504.116 204.696 503.192V507.196H203.478V497.396H204.696V498.6C205.302 497.676 206.184 497.214 207.342 497.214ZM207.188 503.402C207.888 503.402 208.476 503.164 208.952 502.688C209.428 502.203 209.666 501.606 209.666 500.896C209.666 500.187 209.428 499.594 208.952 499.118C208.476 498.633 207.888 498.39 207.188 498.39C206.478 498.39 205.886 498.633 205.41 499.118C204.934 499.594 204.696 500.187 204.696 500.896C204.696 501.606 204.934 502.203 205.41 502.688C205.886 503.164 206.478 503.402 207.188 503.402ZM213.191 501.456C213.312 502.082 213.597 502.567 214.045 502.912C214.502 503.258 215.062 503.43 215.725 503.43C216.649 503.43 217.321 503.09 217.741 502.408L218.777 502.996C218.096 504.051 217.069 504.578 215.697 504.578C214.586 504.578 213.681 504.233 212.981 503.542C212.29 502.842 211.945 501.96 211.945 500.896C211.945 499.842 212.286 498.964 212.967 498.264C213.648 497.564 214.53 497.214 215.613 497.214C216.64 497.214 217.475 497.578 218.119 498.306C218.772 499.025 219.099 499.893 219.099 500.91C219.099 501.088 219.085 501.27 219.057 501.456H213.191ZM215.613 498.362C214.96 498.362 214.418 498.549 213.989 498.922C213.56 499.286 213.294 499.776 213.191 500.392H217.867C217.764 499.73 217.503 499.226 217.083 498.88C216.663 498.535 216.173 498.362 215.613 498.362ZM221.717 498.572C222.119 497.704 222.847 497.27 223.901 497.27V498.544C223.304 498.516 222.791 498.675 222.361 499.02C221.932 499.366 221.717 499.921 221.717 500.686V504.396H220.499V497.396H221.717V498.572Z" fill="#8A92BC"/>
<defs>
<filter id="filter0_b_2001_1170" x="260.935" y="-27.0652" width="253.203" height="253.202" filterUnits="userSpaceOnUse" color-interpolation-filters="sRGB">
<feFlood flood-opacity="0" result="BackgroundImageFix"/>
<feGaussianBlur in="BackgroundImageFix" stdDeviation="9.84218"/>
<feComposite in2="SourceAlpha" operator="in" result="effect1_backgroundBlur_2001_1170"/>
<feBlend mode="normal" in="SourceGraphic" in2="effect1_backgroundBlur_2001_1170" result="shape"/>
</filter>
<filter id="filter1_b_2001_1170" x="227.892" y="-60.1081" width="320.754" height="320.755" filterUnits="userSpaceOnUse" color-interpolation-filters="sRGB">
<feFlood flood-opacity="0" result="BackgroundImageFix"/>
<feGaussianBlur in="BackgroundImageFix" stdDeviation="9.84218"/>
<feComposite in2="SourceAlpha" operator="in" result="effect1_backgroundBlur_2001_1170"/>
<feBlend mode="normal" in="SourceGraphic" in2="effect1_backgroundBlur_2001_1170" result="shape"/>
</filter>
<filter id="filter2_b_2001_1170" x="292.444" y="4.44293" width="190.185" height="190.186" filterUnits="userSpaceOnUse" color-interpolation-filters="sRGB">
<feFlood flood-opacity="0" result="BackgroundImageFix"/>
<feGaussianBlur in="BackgroundImageFix" stdDeviation="9.84218"/>
<feComposite in2="SourceAlpha" operator="in" result="effect1_backgroundBlur_2001_1170"/>
<feBlend mode="normal" in="SourceGraphic" in2="effect1_backgroundBlur_2001_1170" result="shape"/>
</filter>
<filter id="filter3_b_2001_1170" x="53.8527" y="366.852" width="265.234" height="265.234" filterUnits="userSpaceOnUse" color-interpolation-filters="sRGB">
<feFlood flood-opacity="0" result="BackgroundImageFix"/>
<feGaussianBlur in="BackgroundImageFix" stdDeviation="9.84218"/>
<feComposite in2="SourceAlpha" operator="in" result="effect1_backgroundBlur_2001_1170"/>
<feBlend mode="normal" in="SourceGraphic" in2="effect1_backgroundBlur_2001_1170" result="shape"/>
</filter>
<filter id="filter4_b_2001_1170" x="18.9494" y="331.95" width="336.587" height="336.587" filterUnits="userSpaceOnUse" color-interpolation-filters="sRGB">
<feFlood flood-opacity="0" result="BackgroundImageFix"/>
<feGaussianBlur in="BackgroundImageFix" stdDeviation="9.84218"/>
<feComposite in2="SourceAlpha" operator="in" result="effect1_backgroundBlur_2001_1170"/>
<feBlend mode="normal" in="SourceGraphic" in2="effect1_backgroundBlur_2001_1170" result="shape"/>
</filter>
<filter id="filter5_b_2001_1170" x="87.133" y="400.133" width="198.671" height="198.672" filterUnits="userSpaceOnUse" color-interpolation-filters="sRGB">
<feFlood flood-opacity="0" result="BackgroundImageFix"/>
<feGaussianBlur in="BackgroundImageFix" stdDeviation="9.84218"/>
<feComposite in2="SourceAlpha" operator="in" result="effect1_backgroundBlur_2001_1170"/>
<feBlend mode="normal" in="SourceGraphic" in2="effect1_backgroundBlur_2001_1170" result="shape"/>
</filter>
<linearGradient id="paint0_linear_2001_1170" x1="359.712" y1="30.9598" x2="359.712" y2="244.736" gradientUnits="userSpaceOnUse">
<stop stop-color="#272F50" stop-opacity="0"/>
<stop offset="1" stop-color="#272F50" stop-opacity="0.31"/>
</linearGradient>
<linearGradient id="paint1_linear_2001_1170" x1="359.712" y1="244.736" x2="359.712" y2="30.9598" gradientUnits="userSpaceOnUse">
<stop stop-color="#2364F9"/>
<stop offset="1" stop-color="#2364F9" stop-opacity="0"/>
</linearGradient>
<linearGradient id="paint2_linear_2001_1170" x1="351.655" y1="10.0291" x2="351.655" y2="291.339" gradientUnits="userSpaceOnUse">
<stop stop-color="#272F50" stop-opacity="0"/>
<stop offset="1" stop-color="#272F50" stop-opacity="0.31"/>
</linearGradient>
<linearGradient id="paint3_linear_2001_1170" x1="351.655" y1="291.339" x2="351.655" y2="10.0291" gradientUnits="userSpaceOnUse">
<stop stop-color="#2364F9"/>
<stop offset="1" stop-color="#2364F9" stop-opacity="0"/>
</linearGradient>
<linearGradient id="paint4_linear_2001_1170" x1="367.912" y1="51.169" x2="367.912" y2="201.945" gradientUnits="userSpaceOnUse">
<stop stop-color="#272F50" stop-opacity="0"/>
<stop offset="1" stop-color="#272F50" stop-opacity="0.31"/>
</linearGradient>
<linearGradient id="paint5_linear_2001_1170" x1="367.912" y1="201.945" x2="367.912" y2="51.169" gradientUnits="userSpaceOnUse">
<stop stop-color="#2364F9"/>
<stop offset="1" stop-color="#2364F9" stop-opacity="0"/>
</linearGradient>
<linearGradient id="paint6_linear_2001_1170" x1="157.08" y1="427.034" x2="157.08" y2="652.838" gradientUnits="userSpaceOnUse">
<stop stop-color="#272F50" stop-opacity="0"/>
<stop offset="1" stop-color="#272F50" stop-opacity="0.31"/>
</linearGradient>
<linearGradient id="paint7_linear_2001_1170" x1="157.08" y1="652.838" x2="157.08" y2="427.034" gradientUnits="userSpaceOnUse">
<stop stop-color="#2364F9"/>
<stop offset="1" stop-color="#2364F9" stop-opacity="0"/>
</linearGradient>
<linearGradient id="paint8_linear_2001_1170" x1="148.569" y1="404.926" x2="148.569" y2="702.064" gradientUnits="userSpaceOnUse">
<stop stop-color="#272F50" stop-opacity="0"/>
<stop offset="1" stop-color="#272F50" stop-opacity="0.31"/>
</linearGradient>
<linearGradient id="paint9_linear_2001_1170" x1="148.569" y1="702.064" x2="148.569" y2="404.926" gradientUnits="userSpaceOnUse">
<stop stop-color="#2364F9"/>
<stop offset="1" stop-color="#2364F9" stop-opacity="0"/>
</linearGradient>
<linearGradient id="paint10_linear_2001_1170" x1="165.74" y1="448.38" x2="165.74" y2="607.64" gradientUnits="userSpaceOnUse">
<stop stop-color="#272F50" stop-opacity="0"/>
<stop offset="1" stop-color="#272F50" stop-opacity="0.31"/>
</linearGradient>
<linearGradient id="paint11_linear_2001_1170" x1="165.74" y1="607.64" x2="165.74" y2="448.38" gradientUnits="userSpaceOnUse">
<stop stop-color="#2364F9"/>
<stop offset="1" stop-color="#2364F9" stop-opacity="0"/>
</linearGradient>
</defs>
</svg>
