<svg width="56" height="24" viewBox="0 0 56 24" fill="none" xmlns="http://www.w3.org/2000/svg">
<rect width="24" height="24" rx="12" fill="#F7931A"/>
<path d="M17.2581 10.2773C17.497 8.68023 16.2811 7.82172 14.6184 7.24901L15.1578 5.08557L13.8408 4.75742L13.3157 6.8639C12.9695 6.77755 12.614 6.69618 12.2606 6.61552L12.7895 4.49514L11.4734 4.16699L10.9337 6.32972C10.6472 6.26449 10.3658 6.20002 10.0928 6.13209L10.0943 6.12529L8.27819 5.67178L7.92786 7.07836C7.92786 7.07836 8.90493 7.30233 8.88434 7.31612C9.41763 7.44922 9.51407 7.80224 9.49805 8.08206L8.88363 10.5467C8.92036 10.5561 8.96799 10.5695 9.02055 10.5907C8.97661 10.5797 8.92986 10.5678 8.88134 10.5562L8.02014 14.0089C7.95496 14.1709 7.78954 14.414 7.41668 14.3217C7.42988 14.3408 6.45951 14.0828 6.45951 14.0828L5.80566 15.5903L7.51946 16.0176C7.83828 16.0975 8.15072 16.1812 8.4584 16.2598L7.91343 18.4481L9.22886 18.7762L9.76854 16.6112C10.1279 16.7088 10.4766 16.7987 10.8181 16.8836L10.2802 19.0384L11.5972 19.3665L12.1421 17.1824C14.3878 17.6074 16.0764 17.436 16.7871 15.4048C17.3598 13.7695 16.7586 12.8262 15.5771 12.2111C16.4376 12.0126 17.0858 11.4466 17.2586 10.2775L17.2582 10.2772L17.2581 10.2773ZM14.2492 14.4966C13.8422 16.132 11.0888 15.248 10.1961 15.0263L10.9192 12.1272C11.8119 12.3501 14.6746 12.7911 14.2493 14.4966H14.2492ZM14.6565 10.2536C14.2852 11.7412 11.9935 10.9855 11.2501 10.8001L11.9058 8.17087C12.6492 8.35619 15.0433 8.70205 14.6566 10.2536H14.6565Z" fill="white"/>
<rect x="16" width="24" height="24" rx="12" fill="#ECEFF0"/>
<path fill-rule="evenodd" clip-rule="evenodd" d="M21.4637 3.9317L17.703 11.8154C17.6887 11.8447 17.6841 11.8778 17.69 11.9099C17.6959 11.942 17.712 11.9713 17.7358 11.9937L27.8927 21.707C27.9216 21.7346 27.96 21.75 28 21.75C28.04 21.75 28.0784 21.7346 28.1073 21.707L38.2642 11.9943C38.288 11.9719 38.3041 11.9426 38.31 11.9105C38.3159 11.8784 38.3114 11.8453 38.297 11.816L34.5363 3.9323C34.5241 3.90582 34.5046 3.8834 34.48 3.86769C34.4555 3.85199 34.4269 3.84369 34.3977 3.84376H21.6035C21.5742 3.8434 21.5454 3.85151 21.5206 3.86711C21.4958 3.88271 21.4761 3.90514 21.4637 3.9317Z" fill="#50AF95"/>
<path fill-rule="evenodd" clip-rule="evenodd" d="M29.3051 12.625C29.2322 12.6304 28.8554 12.6529 28.015 12.6529C27.3466 12.6529 26.872 12.6328 26.7056 12.625C24.1224 12.5116 22.1943 12.0628 22.1943 11.5255C22.1943 10.9882 24.1224 10.54 26.7056 10.4248V12.178C26.8745 12.1901 27.3582 12.2186 28.0266 12.2186C28.8287 12.2186 29.2304 12.1853 29.3027 12.1786V10.426C31.8804 10.5406 33.8042 10.9894 33.8042 11.5255C33.8042 12.0616 31.881 12.5103 29.3027 12.6244L29.3051 12.625ZM29.3051 10.2447V8.67584H32.9024V6.28345H23.1082V8.67584H26.7049V10.2441C23.7815 10.3781 21.583 10.956 21.583 11.6486C21.583 12.3411 23.7815 12.9185 26.7049 13.0531V18.0805H29.3045V13.0513C32.2212 12.9173 34.4161 12.3399 34.4161 11.648C34.4161 10.956 32.2231 10.3787 29.3045 10.2441L29.3051 10.2447Z" fill="white"/>
<rect x="32" width="24" height="24" rx="12" fill="#E84142"/>
<path d="M38.2089 17.0658H40.5362C41.0842 17.0658 41.3582 17.0658 41.6027 16.9981C41.8708 16.9185 42.1153 16.7771 42.3186 16.5826C42.5052 16.4048 42.64 16.1691 42.9057 15.704L42.9137 15.6901L45.9321 10.3543C46.2002 9.88588 46.3328 9.65019 46.3917 9.40274C46.4565 9.13465 46.4565 8.85184 46.3917 8.58375C46.3332 8.33816 46.1993 8.10416 45.9352 7.64274L44.7478 5.57003C44.5033 5.13992 44.3796 4.92486 44.2234 4.84532C44.0555 4.75989 43.8552 4.75989 43.6873 4.84532C43.5311 4.92486 43.4074 5.13992 43.1629 5.57003L37.4165 15.6989C37.1749 16.1231 37.0541 16.3353 37.063 16.509C37.0747 16.6976 37.172 16.8685 37.331 16.9716C37.4783 17.0658 37.7199 17.0658 38.2089 17.0658Z" fill="white"/>
<path d="M49.7483 17.0658H46.4135C45.9215 17.0658 45.6741 17.0658 45.5297 16.9716C45.3706 16.8685 45.2734 16.6947 45.2616 16.5062C45.2528 16.3337 45.3746 16.1235 45.6182 15.703L45.6183 15.7029L45.624 15.6931L47.2884 12.8355C47.533 12.4142 47.6567 12.2051 47.8099 12.1255C47.9777 12.0401 48.1752 12.0401 48.3431 12.1255C48.4952 12.203 48.6136 12.4032 48.8481 12.7998L48.8675 12.8325L50.5379 15.6901C50.546 15.7042 50.554 15.7181 50.562 15.7317C50.7935 16.1312 50.9117 16.3351 50.9032 16.5033C50.8943 16.6917 50.7942 16.8656 50.6351 16.9688C50.4877 17.0658 50.2402 17.0658 49.7483 17.0658Z" fill="white"/>
</svg>
