<svg width="40" height="24" viewBox="0 0 40 24" fill="none" xmlns="http://www.w3.org/2000/svg">
<rect width="24" height="24" rx="12" fill="#F7931A"/>
<path d="M17.2581 10.2773C17.497 8.68023 16.2811 7.82172 14.6184 7.24901L15.1578 5.08557L13.8408 4.75742L13.3157 6.8639C12.9695 6.77755 12.614 6.69618 12.2606 6.61552L12.7895 4.49514L11.4734 4.16699L10.9337 6.32972C10.6472 6.26449 10.3658 6.20002 10.0928 6.13209L10.0943 6.12529L8.27819 5.67178L7.92786 7.07836C7.92786 7.07836 8.90493 7.30233 8.88434 7.31612C9.41763 7.44922 9.51407 7.80224 9.49805 8.08206L8.88363 10.5467C8.92036 10.5561 8.96799 10.5695 9.02055 10.5907C8.97661 10.5797 8.92986 10.5678 8.88134 10.5562L8.02014 14.0089C7.95496 14.1709 7.78954 14.414 7.41668 14.3217C7.42988 14.3408 6.45951 14.0828 6.45951 14.0828L5.80566 15.5903L7.51946 16.0176C7.83828 16.0975 8.15072 16.1812 8.4584 16.2598L7.91343 18.4481L9.22886 18.7762L9.76854 16.6112C10.1279 16.7088 10.4766 16.7987 10.8181 16.8836L10.2802 19.0384L11.5972 19.3665L12.1421 17.1824C14.3878 17.6074 16.0764 17.436 16.7871 15.4048C17.3598 13.7695 16.7586 12.8262 15.5771 12.2111C16.4376 12.0126 17.0858 11.4466 17.2586 10.2775L17.2582 10.2772L17.2581 10.2773ZM14.2492 14.4966C13.8422 16.132 11.0888 15.248 10.1961 15.0263L10.9192 12.1272C11.8119 12.3501 14.6746 12.7911 14.2493 14.4966H14.2492ZM14.6565 10.2536C14.2852 11.7412 11.9935 10.9855 11.2501 10.8001L11.9058 8.17087C12.6492 8.35619 15.0433 8.70205 14.6566 10.2536H14.6565Z" fill="white"/>
<rect x="15.75" width="24" height="24" rx="12" fill="#ECEFF0"/>
<path fill-rule="evenodd" clip-rule="evenodd" d="M21.2137 3.9317L17.453 11.8154C17.4387 11.8447 17.4341 11.8778 17.44 11.9099C17.4459 11.942 17.462 11.9713 17.4858 11.9937L27.6427 21.707C27.6716 21.7346 27.71 21.75 27.75 21.75C27.79 21.75 27.8284 21.7346 27.8573 21.707L38.0142 11.9943C38.038 11.9719 38.0541 11.9426 38.06 11.9105C38.0659 11.8784 38.0614 11.8453 38.047 11.816L34.2863 3.9323C34.2741 3.90582 34.2546 3.8834 34.23 3.86769C34.2055 3.85199 34.1769 3.84369 34.1477 3.84376H21.3535C21.3242 3.8434 21.2954 3.85151 21.2706 3.86711C21.2458 3.88271 21.2261 3.90514 21.2137 3.9317Z" fill="#50AF95"/>
<path fill-rule="evenodd" clip-rule="evenodd" d="M29.0551 12.625C28.9822 12.6304 28.6054 12.6529 27.765 12.6529C27.0966 12.6529 26.622 12.6328 26.4556 12.625C23.8724 12.5116 21.9443 12.0628 21.9443 11.5255C21.9443 10.9882 23.8724 10.54 26.4556 10.4248V12.178C26.6245 12.1901 27.1082 12.2186 27.7766 12.2186C28.5787 12.2186 28.9804 12.1853 29.0527 12.1786V10.426C31.6304 10.5406 33.5542 10.9894 33.5542 11.5255C33.5542 12.0616 31.631 12.5103 29.0527 12.6244L29.0551 12.625ZM29.0551 10.2447V8.67584H32.6524V6.28345H22.8582V8.67584H26.4549V10.2441C23.5315 10.3781 21.333 10.956 21.333 11.6486C21.333 12.3411 23.5315 12.9185 26.4549 13.0531V18.0805H29.0545V13.0513C31.9712 12.9173 34.1661 12.3399 34.1661 11.648C34.1661 10.956 31.9731 10.3787 29.0545 10.2441L29.0551 10.2447Z" fill="white"/>
</svg>
