<svg width="24" height="24" viewBox="0 0 24 24" fill="none" xmlns="http://www.w3.org/2000/svg">
<g id="Icon / line / coin-alt">
<path id="Vector" d="M19.3621 7.5C19.497 7.66067 19.6249 7.8275 19.7453 8C20.5361 9.13383 20.9999 10.5128 20.9999 12C20.9999 13.4872 20.5361 14.8662 19.7453 16C19.6249 16.1725 19.497 16.3393 19.3621 16.5M10.5 8.5C11.8807 8.5 13 9.2835 13 10.25M10.5 8.5C9.11929 8.5 8 9.2835 8 10.25C8 11.2165 9.11929 12 10.5 12M10.5 8.5V7.25M10.5 8.5V12M10.5 12C11.8807 12 13 12.7835 13 13.75C13 14.7165 11.8807 15.5 10.5 15.5M10.5 12V15.5M10.5 15.5C9.11929 15.5 8 14.7165 8 13.75M10.5 15.5V16.75M18 12C18 16.1421 14.6421 19.5 10.5 19.5C6.35786 19.5 3 16.1421 3 12C3 7.85786 6.35786 4.5 10.5 4.5C14.6421 4.5 18 7.85786 18 12Z" stroke="white" stroke-width="1.5" stroke-linecap="round"/>
</g>
</svg>
