<svg width="24" height="24" viewBox="0 0 24 24" fill="none" xmlns="http://www.w3.org/2000/svg">
<path d="M6.62799 3.07968C6.29003 3.175 5.87409 3.40031 5.62279 3.62128C5.32816 3.88124 2.59419 7.00517 2.39488 7.30413C2.30389 7.44711 2.17824 7.72008 2.11325 7.91072C2.01793 8.20535 2.0006 8.33966 2.0006 8.75994C1.99626 9.19322 2.01359 9.30587 2.11758 9.60483C2.18257 9.79547 2.29089 10.0424 2.36022 10.1508C2.55519 10.4757 9.86023 20.0728 10.0595 20.2764C10.3152 20.5277 10.7138 20.779 11.0604 20.9003C11.3074 20.987 11.4374 21 11.9356 21C12.4339 21 12.5639 20.987 12.8108 20.9003C13.1575 20.779 13.5561 20.5277 13.8117 20.2764C14.0414 20.0425 21.3464 10.4237 21.537 10.1031C21.8967 9.49218 21.9833 8.61263 21.758 7.91072C21.693 7.72008 21.5674 7.44711 21.4764 7.30413C21.2771 7.00084 18.5431 3.88124 18.2485 3.62128C18.1358 3.52163 17.9148 3.37431 17.7502 3.28766C17.1696 2.98003 17.4816 2.99736 11.9096 3.00169C7.28657 3.00169 6.86629 3.01036 6.62799 3.07968ZM9.05867 4.4575C9.04134 4.50083 8.69472 5.30239 8.28311 6.23394L7.5422 7.93671H5.64445C4.60026 7.93671 3.7467 7.92372 3.75103 7.90205C3.75103 7.88472 4.37928 7.16115 5.14618 6.29026C6.07773 5.2374 6.61066 4.66981 6.74064 4.58749C7.00927 4.42284 7.21725 4.39684 8.22678 4.38818C9.02834 4.38385 9.08467 4.38818 9.05867 4.4575ZM13.4218 4.43584C13.4391 4.47917 14.4616 7.06149 14.7823 7.88039C14.7996 7.92372 14.219 7.93671 11.9573 7.93671C9.69559 7.93671 9.115 7.92372 9.13233 7.88039C9.20165 7.72008 10.6488 4.44451 10.6618 4.41851C10.6748 4.39684 11.2944 4.38385 12.0439 4.38385C13.0881 4.38385 13.4044 4.39684 13.4218 4.43584ZM16.68 4.42717C16.823 4.44884 17.0223 4.5225 17.1306 4.59182C17.2606 4.66981 17.8065 5.2504 18.7251 6.29026C19.492 7.16115 20.1202 7.88472 20.1202 7.90638C20.1246 7.92372 19.2753 7.93238 18.2355 7.92805L16.3464 7.91505L15.6835 6.2426C15.3195 5.31972 15.0076 4.52683 14.9902 4.47483C14.9642 4.38385 14.9686 4.38385 15.6921 4.38385C16.0907 4.38385 16.537 4.40551 16.68 4.42717ZM8.80304 13.201C9.52228 15.2981 10.2502 17.4125 10.4192 17.9021C10.5881 18.3917 10.6965 18.76 10.6618 18.7253C10.5925 18.6516 3.64705 9.50517 3.59939 9.41852C3.57339 9.37519 3.95901 9.36653 5.5318 9.37519L7.49454 9.38819L8.80304 13.201ZM14.8386 9.39686C14.8429 9.47051 11.9616 17.8154 11.9356 17.8154C11.9096 17.8154 9.02834 9.47051 9.03267 9.39686C9.03267 9.37952 10.3412 9.36653 11.9356 9.36653C13.5344 9.36653 14.8386 9.37952 14.8386 9.39686ZM20.2719 9.41852C20.2199 9.50517 13.2788 18.6516 13.2095 18.7253C13.1705 18.7643 13.1835 18.682 13.2528 18.487C13.3091 18.318 14.0197 16.2556 14.8299 13.8943C15.6401 11.5329 16.3247 9.55283 16.3507 9.48351L16.3984 9.36653H18.3481C19.8992 9.36653 20.2979 9.37952 20.2719 9.41852Z"/>
</svg>
