<svg width="24" height="24" viewBox="0 0 24 24" fill="none" xmlns="http://www.w3.org/2000/svg">
<g id="Icon / line / hand-thumb-up">
<path id="Vector" d="M6.03722 19.2627H8.29992C8.56507 19.2627 8.82847 19.3088 9.07982 19.3992L12.455 20.6135C12.7064 20.7039 12.9698 20.75 13.2349 20.75H16.8821C17.7842 20.75 18.6213 20.2214 19.0182 19.3535C20.2637 16.6299 20.7872 14.5802 20.9917 12.0083C21.1078 10.5488 19.9839 9.34732 18.6166 9.34732H15.1314M15.1314 9.34732H13.7533M15.1314 9.34732C15.8832 7.72447 16.0198 8.09371 16.2964 6.10777C16.4377 5.09275 15.905 4.11002 15.0255 3.70323L14.1775 3.31103C13.7449 3.1109 13.2454 3.42607 13.1473 3.91989C12.9442 4.942 12.479 6.42707 11.4565 6.86848C9.15965 7.86002 8.3716 9.17974 6.53414 11.1628M3.6351 10.2207L6.20143 9.76251C6.31154 9.74285 6.41491 9.82667 6.42763 9.94548C6.83647 13.7649 6.42864 16.1893 5.94088 20.0095C5.92589 20.1269 5.82326 20.209 5.71419 20.1895L3.16377 19.7341C3.05821 19.7153 2.98645 19.6081 3.00215 19.4947C3.48685 15.9943 3.615 13.9445 3.47139 10.4387C3.46704 10.3325 3.53721 10.2382 3.6351 10.2207Z"  stroke-width="1.5" stroke-linecap="round"/>
</g>
</svg>
