<svg width="24" height="24" viewBox="0 0 24 24" fill="none" xmlns="http://www.w3.org/2000/svg">
<path d="M7.25407 15.1455C8.50157 16.2967 10.1687 17 12 17C13.8313 17 15.4984 16.2967 16.7459 15.1455M7.25407 15.1455C5.86807 13.8666 5 12.0346 5 10C5 6.13401 8.13401 3 12 3C15.866 3 19 6.13401 19 10C19 12.0347 18.1319 13.8666 16.7459 15.1455M7.25407 15.1455L7.00164 19.8799C6.96037 20.654 7.70446 21.2109 8.3953 20.923L11.0382 19.8214C11.6537 19.5649 12.3463 19.5649 12.9618 19.8214L15.6047 20.923C16.2955 21.2109 17.0396 20.654 16.9984 19.8799L16.7459 15.1455" stroke="#2364F9" stroke-width="1.5"/>
<path d="M11.8454 7.09652C11.9124 6.96783 12.0876 6.96783 12.1546 7.09652L12.9597 8.64298C13.0106 8.7408 13.1005 8.80935 13.2045 8.82975L14.8557 9.15368C14.9933 9.18069 15.0477 9.35799 14.9512 9.46497L13.7992 10.7415C13.7257 10.8229 13.691 10.9349 13.7048 11.0464L13.9207 12.7895C13.9388 12.9354 13.7968 13.0447 13.6706 12.9819L12.1504 12.226C12.0552 12.1786 11.9448 12.1786 11.8496 12.226L10.3294 12.9819C10.2032 13.0447 10.0612 12.9354 10.0793 12.7895L10.2952 11.0464C10.309 10.9349 10.2743 10.8229 10.2008 10.7415L9.04881 9.46497C8.95226 9.35799 9.00666 9.18069 9.14433 9.15368L10.7955 8.82975C10.8995 8.80935 10.9894 8.7408 11.0403 8.64298L11.8454 7.09652Z" stroke="#2364F9" stroke-width="1.5"/>
</svg>
