<svg width="30" height="30" viewBox="0 0 30 30" fill="none" xmlns="http://www.w3.org/2000/svg">
<g opacity="0.8" clip-path="url(#clip0_137_703)">
<path d="M8.81836 0.0820293C8.32031 0.240232 7.88086 0.568357 7.58789 1.01953C7.19531 1.59961 7.20703 1.45898 7.20703 6.13476V10.3711H4.69922H2.18555L1.82812 10.5469C1.42969 10.752 1.1543 11.0273 0.972656 11.4199C0.849609 11.6895 0.849609 11.7363 0.849609 16.4062C0.849609 20.8945 0.855469 21.1348 0.960938 21.4102C1.0957 21.7617 1.39453 22.1016 1.75195 22.3125L2.02148 22.4707L4.61719 22.4883L7.20703 22.5059V25.3066C7.20703 27.8848 7.21289 28.1309 7.31836 28.4355C7.51758 29.0449 7.95117 29.5254 8.55469 29.8184L8.87695 29.9707H18.1641H27.4512L27.8027 29.8066C28.2012 29.6191 28.6582 29.2031 28.8457 28.8574C29.168 28.2598 29.1445 28.9453 29.168 18.3691C29.1797 11.5605 29.168 8.51953 29.1211 8.36719C29.0742 8.20312 28.2188 7.27734 25.1484 4.08984L21.2344 0.029295L15.1465 0.0175762C10.3828 0.0117168 9 0.0234356 8.81836 0.0820293ZM19.875 5.03906L19.8926 8.90625L20.0566 9.06445L20.2148 9.22851L24.082 9.24609L27.9492 9.25781L27.9375 18.6504L27.9199 28.043L27.7559 28.2949C27.6387 28.4648 27.498 28.5879 27.2871 28.6875L26.9824 28.8281H18.2227C11.9824 28.8281 9.39258 28.8105 9.22852 28.7637C8.92383 28.6758 8.53125 28.2832 8.44336 27.9785C8.40234 27.8203 8.37891 26.8594 8.37891 25.1191V22.5H13.4941H18.6035L18.9082 22.3594C19.3125 22.1719 19.6523 21.8027 19.8047 21.4043C19.9219 21.0879 19.9219 21.0059 19.9102 16.3594L19.8926 11.6309L19.7578 11.3613C19.5703 10.9805 19.1953 10.6289 18.8262 10.4883C18.5215 10.377 18.3633 10.3711 13.4473 10.3711H8.37891V6.31054C8.37891 3.59765 8.40234 2.17969 8.44336 2.02734C8.52539 1.73437 8.87109 1.36523 9.16992 1.25976C9.36328 1.18945 10.2773 1.17773 14.6309 1.17187H19.8633L19.875 5.03906ZM23.9766 4.64062C25.5352 6.26367 26.9004 7.6875 27.0059 7.80469L27.1992 8.02734H24.1465H21.0938V4.86328C21.0938 3.12304 21.1055 1.69922 21.1172 1.69922C21.1289 1.69922 22.4121 3.02344 23.9766 4.64062ZM18.2871 11.6016C18.4102 11.6367 18.5508 11.7305 18.6094 11.8242C18.7148 11.9766 18.7207 12.2109 18.7383 16.3242C18.7559 21.1348 18.7617 21.0469 18.3984 21.2227C18.2051 21.3223 17.7012 21.3281 10.3828 21.3281C1.8457 21.3281 2.27344 21.3457 2.11523 21C2.06836 20.8945 2.05078 19.6055 2.05078 16.4062V11.9648L2.19727 11.7832C2.2793 11.6895 2.4082 11.5957 2.47852 11.584C2.77148 11.5254 18.082 11.543 18.2871 11.6016Z" fill="#8A92BC"/>
<path d="M4.21875 16.5469V19.043H4.74609H5.27344V18.1406V17.2383L6.02344 17.1973C6.90234 17.1504 7.27734 17.0625 7.57031 16.8164C7.91016 16.5352 8.05078 16.1777 8.05078 15.5859C8.05078 15.0352 7.95117 14.7539 7.63477 14.4668C7.25391 14.1094 7.18359 14.0977 5.64258 14.0742L4.21875 14.0508V16.5469ZM6.67383 15.0938C6.98438 15.2754 7.06055 15.6504 6.85547 15.9785C6.71484 16.2129 6.46289 16.2891 5.78906 16.2891H5.27344V15.6035V14.9238L5.88867 14.959C6.31641 14.9824 6.55664 15.0234 6.67383 15.0938Z" fill="#8A92BC"/>
<path d="M8.84766 16.5527V19.0488L10.2129 19.0312C11.5664 19.0137 11.5723 19.0137 11.9062 18.8496C12.5391 18.5391 12.8965 17.9473 13.0137 17.0391C13.1309 16.084 12.8965 15.1406 12.4102 14.6367C11.9238 14.1387 11.7832 14.0977 10.2129 14.0742L8.84766 14.0508V16.5527ZM11.3379 15.0937C11.7949 15.3164 11.9883 15.8613 11.9414 16.7988C11.918 17.209 11.877 17.4023 11.7715 17.6133C11.543 18.0703 11.4141 18.1289 10.5996 18.1582L9.90234 18.1758V16.5527V14.9238L10.5059 14.9531C10.9395 14.9707 11.1738 15.0117 11.3379 15.0937Z" fill="#8A92BC"/>
<path d="M13.8281 16.5527V19.043H14.3555H14.8828V17.9883V16.9336H15.9375H16.9922V16.4941V16.0547H15.9375H14.8828V15.498V14.9414H16.084H17.2852V14.502V14.0625H15.5566H13.8281V16.5527Z" fill="#8A92BC"/>
</g>
<defs>
<clipPath id="clip0_137_703">
<rect width="30" height="30" fill="white"/>
</clipPath>
</defs>
</svg>
