<svg width="24" height="24" viewBox="0 0 24 24" fill="none" xmlns="http://www.w3.org/2000/svg">
<path d="M11.8711 3.08043C11.927 2.97319 12.073 2.97319 12.1289 3.08043L12.7998 4.36915C12.8422 4.45066 12.9171 4.50779 13.0037 4.52479L14.3797 4.79473C14.4944 4.81724 14.5398 4.96499 14.4593 5.05415L13.4993 6.11791C13.4381 6.18573 13.4092 6.27911 13.4207 6.37197L13.6006 7.82455C13.6157 7.94615 13.4973 8.03721 13.3922 7.98492L12.1254 7.35497C12.046 7.31549 11.954 7.31549 11.8746 7.35497L10.6078 7.98492C10.5027 8.03721 10.3843 7.94615 10.3994 7.82455L10.5793 6.37197C10.5908 6.27911 10.5619 6.18573 10.5007 6.11791L9.54067 5.05415C9.46022 4.96499 9.50555 4.81724 9.62027 4.79473L10.9963 4.52479C11.0829 4.50779 11.1578 4.45066 11.2002 4.36915L11.8711 3.08043Z" stroke="#2364F9" stroke-width="1.5"/>
<path d="M9.33333 13.5H6.22222C4.99492 13.5 4 14.6193 4 16V18.5C4 19.8807 4.99492 21 6.22222 21H9.33333M9.33333 13.5V13C9.33333 11.6193 10.3283 10.5 11.5556 10.5H12.4444C13.6717 10.5 14.6667 11.6193 14.6667 13V15M9.33333 13.5V21M14.6667 21H9.33333M14.6667 21V15M14.6667 21H17.7778C19.0051 21 20 19.8807 20 18.5V17.5C20 16.1193 19.0051 15 17.7778 15H14.6667" stroke="#2364F9" stroke-width="1.5"/>
</svg>
