<svg width="20" height="21" viewBox="0 0 20 21" fill="none" xmlns="http://www.w3.org/2000/svg">
<g clip-path="url(#clip0_192_1046)">
<path d="M9.1011 0.558592C7.4136 0.855467 5.96438 1.94531 5.21047 3.48828C4.99172 3.9414 4.80032 4.55078 4.73 5.01953C4.70657 5.17187 4.68703 5.54297 4.68703 5.83984C4.68703 6.69531 4.83938 7.36328 5.21438 8.13672C5.53078 8.79687 6.02297 9.42969 6.57766 9.89453L6.76516 10.0547L6.32375 10.2227C5.02688 10.7187 3.87844 11.4687 2.84719 12.4922C1.48 13.8555 0.605004 15.3828 0.132348 17.2383C0.00344153 17.7461 -0.00827723 17.8164 0.00734777 18.2344C0.0229728 18.6211 0.042504 18.7266 0.147973 18.9961C0.437035 19.7266 1.02297 20.2422 1.77688 20.4414C1.9761 20.4922 2.46047 20.5 5.34719 20.5C8.67141 20.5 8.68703 20.5 8.85891 20.418C8.96047 20.3672 9.06985 20.2695 9.13235 20.1758C9.22219 20.0391 9.23782 19.9766 9.23782 19.7187C9.23782 19.4609 9.22219 19.3984 9.13235 19.2617C9.06985 19.168 8.96047 19.0703 8.85891 19.0195C8.68703 18.9375 8.6636 18.9375 5.57766 18.9375C3.65188 18.9375 2.39016 18.9219 2.26125 18.8984C2.02297 18.8555 1.9136 18.7852 1.74172 18.5742C1.57766 18.3672 1.56204 18.1016 1.69485 17.5898C2.30813 15.1719 4.02297 13.0937 6.30422 12C8.18703 11.1016 10.2066 10.9062 12.2066 11.4375C12.7925 11.5937 13.2066 11.75 13.8277 12.0469C14.3394 12.2969 14.3628 12.3008 14.6167 12.2891C14.8355 12.2773 14.9019 12.2578 15.0269 12.1562C15.4292 11.8359 15.4566 11.2344 15.0777 10.9141C14.9058 10.7695 14.2222 10.4336 13.6792 10.2227L13.2339 10.0508L13.4214 9.89453C13.9761 9.42969 14.4683 8.79687 14.7847 8.13672C15.1597 7.36328 15.312 6.69531 15.312 5.83984C15.312 5.20703 15.2691 4.88672 15.1128 4.32812C14.7144 2.91406 13.6753 1.68359 12.3238 1.02344C11.8706 0.804686 11.2613 0.613279 10.7925 0.542967C10.4175 0.484373 9.46438 0.496092 9.1011 0.558592ZM10.9761 2.21484C12.2534 2.58594 13.2261 3.5625 13.6011 4.85937C13.6792 5.1289 13.6909 5.25 13.687 5.83203C13.687 6.4414 13.6792 6.52344 13.5777 6.84765C13.1831 8.13672 12.1792 9.09766 10.8667 9.42969C10.3433 9.5625 9.65578 9.5625 9.13235 9.42969C7.82375 9.09766 6.81594 8.13672 6.42141 6.84765C6.31985 6.52344 6.31203 6.4414 6.31203 5.83203C6.30813 5.25 6.31985 5.1289 6.39797 4.85937C6.79641 3.47656 7.85891 2.47265 9.24172 2.16406C9.64016 2.07422 10.5855 2.10156 10.9761 2.21484Z" fill="#2364F9"/>
<path d="M17.0898 12.039C16.8047 12.168 16.6406 12.4297 16.6406 12.7656C16.6406 13.0859 16.7227 13.2148 17.25 13.7305L17.7344 14.2109H15.3711C12.7891 14.2109 12.75 14.2148 12.1875 14.4414C11.6172 14.6758 11.0234 15.1875 10.707 15.7226C10.4062 16.2383 10.2734 16.7265 10.2734 17.3555C10.2734 18.289 10.5352 18.9219 11.1914 19.5859C11.7695 20.1719 12.3828 20.4492 13.1719 20.4883C13.5469 20.5078 13.6016 20.5039 13.7695 20.4219C14.2734 20.1797 14.332 19.375 13.8633 19.0664C13.7617 19 13.6094 18.9531 13.3711 18.918C12.9102 18.8437 12.8125 18.8125 12.5625 18.6445C12.3047 18.4765 12.1484 18.2851 12 17.9726C11.9062 17.7734 11.8945 17.6992 11.8945 17.3555C11.8945 17 11.9062 16.9414 12.0156 16.7109C12.168 16.3867 12.4492 16.1055 12.7734 15.9531L13.0273 15.832L15.3867 15.8203L17.75 15.8125L17.2539 16.3164C16.9805 16.5937 16.7305 16.8828 16.6992 16.9609C16.5547 17.3047 16.6719 17.7461 16.957 17.9453C17.1445 18.0742 17.4805 18.1133 17.7188 18.039C17.9297 17.9726 19.582 16.3203 19.7539 16.0078C19.9258 15.6953 20 15.3984 20 15.0195C20 14.6094 19.9023 14.2656 19.6914 13.9531C19.4805 13.6406 17.9453 12.1211 17.7617 12.043C17.5898 11.9726 17.25 11.9687 17.0898 12.039Z" fill="#2364F9"/>
</g>
<defs>
<clipPath id="clip0_192_1046">
<rect width="20" height="20" fill="white" transform="translate(0 0.5)"/>
</clipPath>
</defs>
</svg>
