<svg width="24" height="24" viewBox="0 0 24 24" fill="none" xmlns="http://www.w3.org/2000/svg">
<g id="Icon / line / shield-check">
<path id="Vector" d="M5.08384 6.29424C5.26338 6.16477 5.47593 6.09383 5.68897 6.03377C7.76602 5.44822 9.7364 3.97228 10.3614 3.4745C10.4995 3.3645 10.6424 3.26106 10.8055 3.19361C11.4289 2.93596 12.1286 2.93513 12.7536 3.19313C12.8759 3.24362 12.9863 3.31395 13.0949 3.38952C13.7306 3.83174 16.1395 5.44532 18.2973 6.05941C18.4801 6.11143 18.6619 6.17175 18.8209 6.27588C19.5506 6.75386 20 7.57802 20 8.47134V11.6308C20 14.5155 18.5332 17.1968 16.1187 18.7258L13.1548 20.6026C12.2947 21.1472 11.1995 21.1309 10.3556 20.5609L7.67731 18.7518C5.37993 17.2001 4 14.5877 4 11.7903V8.42418C4 7.57177 4.40935 6.78061 5.08384 6.29424Z"  stroke-width="1.5" stroke-linecap="round"/>
<path id="Vector_2" d="M9 11.9752L10.8818 13.9499C10.9449 14.016 11.0561 14.0168 11.1202 13.9515L15 10"  stroke-width="1.5" stroke-linecap="round"/>
</g>
</svg>
