<svg width="28" height="28" viewBox="0 0 28 28" fill="none" xmlns="http://www.w3.org/2000/svg">
<path d="M24.6478 3.77879C24.4235 3.83347 2.3626 12.2718 2.11651 12.3975C1.62432 12.6491 1.62432 13.546 2.12198 13.803C2.20401 13.8468 3.54932 14.3171 5.10791 14.8421L7.93526 15.8046L14.6181 11.7194C18.2876 9.47175 21.3446 7.63425 21.4103 7.63425C21.4813 7.62879 21.5196 7.6616 21.5196 7.73816C21.5196 7.80925 19.9446 9.29675 16.5595 12.4139C13.8306 14.9241 11.5446 17.0296 11.4845 17.0897C11.386 17.1936 11.3587 17.4069 11.1837 19.8186C11.0798 21.2624 10.9923 22.4874 10.9923 22.5421C10.9923 22.7171 11.2384 22.9139 11.4571 22.9139C11.6431 22.9139 11.7579 22.8155 13.2728 21.328L14.886 19.7475L15.5532 20.2561C17.5438 21.7764 20.5407 24.0296 20.7103 24.128C20.9399 24.2702 21.4485 24.2811 21.6892 24.1553C21.8642 24.0624 22.1048 23.8218 22.1923 23.6522C22.2251 23.5921 23.1493 19.4522 24.2485 14.4593C25.6485 8.09363 26.2501 5.27722 26.2501 5.05301C26.2501 4.67019 26.1189 4.36394 25.8618 4.11785C25.5446 3.81707 25.0524 3.68035 24.6478 3.77879Z" fill="white"/>
</svg>
