<svg width="24" height="24" viewBox="0 0 24 24" fill="none" xmlns="http://www.w3.org/2000/svg">
<g id="Icon / line / translate">
<path id="Vector" d="M3.29918 5.51134C3.40777 4.33782 4.34515 3.41328 5.51901 3.31213C10.3443 2.89634 13.6947 2.89513 18.4814 3.30957C19.661 3.4117 20.5996 4.34554 20.704 5.52528C21.1253 10.2868 21.0864 13.6488 20.6891 18.4503C20.5904 19.6432 19.6454 20.5933 18.453 20.6944C13.6523 21.1014 10.3059 21.1004 5.56642 20.6963C4.37117 20.5944 3.42621 19.6392 3.32857 18.4433C2.94055 13.6904 2.8542 10.3201 3.29918 5.51134Z" stroke-width="1.5"/>
<path id="Vector_2" d="M9.75 12.8C10.8588 14.2879 12.4331 15.4074 14.25 16M9.75 16C14.25 14.9333 14.25 9.6 14.25 9.6M7.5 9.6H12M12 9.6H16.5M12 9.6V8"  stroke-width="1.5" stroke-linecap="round"/>
</g>
</svg>
