<svg width="25" height="24" viewBox="0 0 25 24" fill="none" xmlns="http://www.w3.org/2000/svg">
<g id="Icon / line / verify">
<path id="Vector" d="M10.9163 3.71337C11.8882 2.7614 13.443 2.76139 14.415 3.71337L14.8941 4.1827C15.355 4.63408 15.9725 4.88985 16.6175 4.89654L17.2882 4.9035C18.6486 4.91762 19.748 6.01701 19.7621 7.37743L19.7691 8.04811C19.7758 8.69315 20.0315 9.31064 20.4829 9.77149L20.9522 10.2507C21.9042 11.2226 21.9042 12.7774 20.9522 13.7493L20.4829 14.2285C20.0315 14.6893 19.7758 15.3068 19.7691 15.9519L19.7621 16.6225C19.748 17.983 18.6486 19.0823 17.2882 19.0965L16.6175 19.1034C15.9725 19.1101 15.355 19.3659 14.8941 19.8173L14.415 20.2866C13.443 21.2386 11.8882 21.2386 10.9163 20.2866L10.4371 19.8173C9.97629 19.3659 9.3588 19.1101 8.71376 19.1034L8.04307 19.0965C6.68266 19.0823 5.58327 17.983 5.56915 16.6225L5.56219 15.9519C5.5555 15.3068 5.29973 14.6893 4.84834 14.2285L4.37902 13.7493C3.42704 12.7774 3.42704 11.2226 4.37902 10.2507L4.84834 9.77149C5.29973 9.31064 5.5555 8.69315 5.56219 8.04811L5.56915 7.37743C5.58327 6.01701 6.68266 4.91762 8.04307 4.9035L8.71376 4.89654C9.3588 4.88985 9.97629 4.63408 10.4371 4.1827L10.9163 3.71337Z"  stroke-width="1.5"/>
<path id="Vector_2" d="M9.66602 11.9752L11.5478 13.9499C11.6109 14.016 11.7221 14.0168 11.7862 13.9515L15.666 10"  stroke-width="1.5" stroke-linecap="round"/>
</g>
</svg>
