<svg width="24" height="24" viewBox="0 0 24 24" fill="none" xmlns="http://www.w3.org/2000/svg">
<path d="M7.00037 20.51H17.0004M7.86049 17.536H16.1403C17.2444 17.536 18.2177 16.8118 18.5349 15.7543L20.7025 8.52887C20.8228 8.12792 20.4266 7.76549 20.0379 7.92096L16.7822 9.22326C16.3304 9.40397 15.8141 9.23328 15.5591 8.81888L12.4262 3.72794C12.231 3.41067 11.7698 3.41067 11.5746 3.72794L8.4417 8.81888C8.18669 9.23328 7.67042 9.40397 7.21865 9.22326L3.9629 7.92096C3.57423 7.76549 3.178 8.12792 3.29829 8.52887L5.46593 15.7543C5.78316 16.8118 6.75647 17.536 7.86049 17.536Z"  stroke-width="1.5" stroke-linecap="round"/>
</svg>
