<svg width="25" height="24" viewBox="0 0 25 24" fill="none" xmlns="http://www.w3.org/2000/svg">
<g id="Icon / line / wallet-add">
<path id="Vector" d="M3.6168 8.22448C3.73146 7.32283 4.60944 6.61529 5.70655 6.53729C9.16373 6.2915 11.8177 6.23197 14.8734 6.35909M3.6168 8.22448C3.61581 8.23223 3.61488 8.24 3.61401 8.24779C3.50396 9.229 3.42839 10.1332 3.38338 11.0001C3.37759 11.1116 3.3723 11.2225 3.36751 11.3329C3.36272 11.4435 3.35842 11.5536 3.35461 11.6632M3.6168 8.22448C3.67182 7.7675 3.8086 6.79261 4.019 5.5918C4.20705 4.51856 5.11638 3.71249 6.22933 3.59227L11.5689 3.01547C12.7661 2.88613 13.8953 3.58221 14.2856 4.69021L14.8734 6.35909M20.2595 11.2666C20.215 10.3198 20.1362 9.33519 20.0207 8.25863C19.9223 7.34105 19.0376 6.61473 17.9256 6.5353C16.8429 6.45795 15.8381 6.39922 14.8734 6.35909M20.2434 15.3217C20.1938 16.2609 20.1141 17.2401 20.0067 18.3114C19.9137 19.2392 19.0229 19.9782 17.8989 20.0568C16.4293 20.1596 15.1043 20.2289 13.832 20.2649C13.7476 20.2673 13.6634 20.2696 13.5794 20.2717C13.446 20.275 13.3131 20.278 13.1806 20.2806M7.33203 10.0001H12.332M5.33203 17.0001H7.33203M7.33203 17.0001H9.33203M7.33203 17.0001V15.0001M7.33203 17.0001V19.0001M18.2463 11.2941H20.3034C20.8715 11.2941 21.332 11.7419 21.332 12.2941V14.2941C21.332 14.8464 20.8715 15.2941 20.3034 15.2941H18.2463C17.1101 15.2941 16.1891 14.3987 16.1891 13.2941C16.1891 12.1896 17.1101 11.2941 18.2463 11.2941ZM11.332 17.0001C11.332 19.2092 9.54117 21.0001 7.33203 21.0001C5.12289 21.0001 3.33203 19.2092 3.33203 17.0001C3.33203 14.7909 5.12289 13.0001 7.33203 13.0001C9.54117 13.0001 11.332 14.7909 11.332 17.0001Z" stroke="white" stroke-width="1.5" stroke-linecap="round"/>
</g>
</svg>
