<svg width="28" height="28" viewBox="0 0 28 28" fill="none" xmlns="http://www.w3.org/2000/svg">
<path d="M7.89061 3.54199C6.81553 3.73075 5.83072 4.23136 5.0757 4.96586C4.32068 5.70858 3.85699 6.51694 3.59848 7.5551L3.5 7.93671V13.9687C3.5 19.697 3.5041 20.0171 3.57796 20.3289C4.08268 22.5037 5.72813 24.0671 7.91113 24.4323C8.42816 24.5226 19.5401 24.5226 20.0571 24.4323C21.1527 24.2476 22.1252 23.7593 22.8926 23.0125C23.6435 22.2739 24.0949 21.4861 24.3739 20.4315L24.4683 20.0827L24.4806 14.2149C24.4888 10.0417 24.4806 8.25267 24.4477 8.01878C24.1769 6.09429 22.7859 4.4078 20.9394 3.77178C20.131 3.48865 20.6234 3.50916 14.0867 3.50096C9.59762 3.49685 8.10809 3.50506 7.89061 3.54199ZM14.7843 7.50586C16.7129 7.72334 18.3747 8.74508 19.4662 10.3823C20.8409 12.4422 20.8327 15.1956 19.4498 17.2924C17.6936 19.9473 14.2467 20.9198 11.3621 19.5657C11.1733 19.4795 10.9887 19.4057 10.9558 19.4057C10.923 19.4057 10.1311 19.6478 9.19549 19.9432C8.26402 20.2427 7.49259 20.4766 7.48438 20.4684C7.47617 20.4602 7.72238 19.7052 8.03423 18.7901L8.6005 17.1283L8.38302 16.6974C7.66493 15.2653 7.50079 13.665 7.91113 12.1673C8.74412 9.15131 11.6862 7.15707 14.7843 7.50586Z" fill="white"/>
<path d="M13.408 8.4732C12.6038 8.62092 12.1975 8.74402 11.6846 9.00253C10.6054 9.54007 9.74372 10.4059 9.18976 11.5056C9.04204 11.801 8.81225 12.5437 8.7507 12.9336C8.66863 13.4301 8.67274 14.2425 8.7548 14.7308C8.8738 15.4161 9.19797 16.245 9.54675 16.7497C9.61651 16.8523 9.67396 16.9631 9.67396 16.9959C9.67396 17.0287 9.52624 17.4883 9.34569 18.0094C9.16514 18.5347 9.02152 18.9737 9.02973 18.9778C9.03794 18.986 9.50572 18.8465 10.072 18.666L11.1019 18.3377L11.5287 18.5634C13.1823 19.4374 15.2012 19.4087 16.8056 18.4895C18.0449 17.7756 18.9435 16.6389 19.3333 15.2848C19.4892 14.7432 19.5344 14.3123 19.5098 13.6147C19.481 12.7448 19.3333 12.1621 18.9476 11.4112C18.2049 9.94631 16.859 8.91226 15.2135 8.55116C14.914 8.48551 13.6419 8.43216 13.408 8.4732ZM12.3945 11.0091C12.4355 11.0419 12.5833 11.3332 12.7187 11.6574C13.1003 12.5643 13.088 12.5191 12.9895 12.7038C12.9444 12.7899 12.8254 12.9541 12.7269 13.0731C12.6284 13.188 12.5463 13.3193 12.5463 13.3603C12.5463 13.4547 12.8828 13.9553 13.17 14.2877C13.2849 14.4149 13.5311 14.6406 13.724 14.7842C14.0974 15.0632 14.7827 15.4243 14.9468 15.4243C15.0207 15.4243 15.1068 15.3464 15.2833 15.1289C15.6731 14.6447 15.7346 14.5913 15.8578 14.6201C15.9152 14.6365 16.264 14.7965 16.6292 14.9729C17.0929 15.1945 17.3062 15.3217 17.3268 15.3792C17.3596 15.4818 17.2775 15.9372 17.2037 16.0809C16.9944 16.483 16.1942 16.8646 15.6854 16.8031C15.4392 16.7743 14.4093 16.4379 14.0482 16.2655C13.1782 15.8552 12.2345 14.9565 11.4671 13.8076C10.8434 12.8761 10.8147 11.9488 11.3851 11.284C11.6108 11.0173 11.7421 10.9516 12.0539 10.9516C12.214 10.9557 12.3494 10.9763 12.3945 11.0091Z" fill="white"/>
</svg>
